<svg width="26" height="26" viewBox="0 0 26 26" fill="none" xmlns="http://www.w3.org/2000/svg">
<path d="M15.5576 0.802539L10.3726 0.790039H10.3701C4.90262 0.790039 0.620117 5.07379 0.620117 10.5425C0.620117 15.665 4.60262 19.55 9.95137 19.755V24.54C9.95137 24.675 10.0064 24.8975 10.1014 25.0438C10.2789 25.325 10.5814 25.4775 10.8914 25.4775C11.0639 25.4775 11.2376 25.43 11.3939 25.33C11.7239 25.12 19.4851 20.155 21.5039 18.4475C23.8814 16.435 25.3039 13.485 25.3076 10.5575V10.5363C25.3001 5.07754 21.0201 0.802539 15.5576 0.801289V0.802539ZM20.2914 17.0175C18.8739 18.2175 14.2139 21.2738 11.8264 22.8213V18.8375C11.8264 18.32 11.4076 17.9 10.8889 17.9H10.3939C5.81887 17.9 2.49637 14.805 2.49637 10.5425C2.49637 6.12504 5.95637 2.66504 10.3714 2.66504L15.5551 2.67754H15.5576C19.9726 2.67754 23.4326 6.13504 23.4351 10.5475C23.4314 12.935 22.2576 15.3525 20.2926 17.0175H20.2914Z" fill="#657786"/>
</svg>
