<svg width="24" height="25" viewBox="0 0 24 25" fill="none" xmlns="http://www.w3.org/2000/svg">
<path d="M12 12.316C13.355 12.316 14.872 12.166 15.84 11.06C16.654 10.13 16.918 8.69201 16.646 6.66801C16.266 3.84301 14.529 2.15601 12 2.15601C9.47103 2.15601 7.73403 3.84301 7.35403 6.67001C7.08203 8.69201 7.34603 10.13 8.16003 11.06C9.12803 12.167 10.645 12.316 12 12.316ZM8.84003 6.86801C9.00203 5.66801 9.62703 3.65601 12 3.65601C14.373 3.65601 14.998 5.66901 15.16 6.86801C15.367 8.41801 15.217 9.49501 14.71 10.073C14.255 10.593 13.444 10.816 12 10.816C10.556 10.816 9.74503 10.593 9.29003 10.073C8.78303 9.49501 8.63303 8.41701 8.84003 6.86801ZM20.28 19.736C19.403 16.21 15.998 13.746 12 13.746C8.00203 13.746 4.59703 16.21 3.72003 19.736C3.54803 20.428 3.69203 21.136 4.11503 21.676C4.52303 22.196 5.15503 22.496 5.84803 22.496H18.152C18.845 22.496 19.477 22.196 19.885 21.676C20.309 21.136 20.452 20.429 20.279 19.736H20.28ZM18.704 20.752C18.578 20.912 18.388 20.998 18.152 20.998H5.84803C5.61303 20.998 5.42203 20.913 5.29603 20.752C5.15903 20.578 5.11603 20.34 5.17603 20.098C5.88603 17.243 8.69303 15.248 12 15.248C15.307 15.248 18.114 17.242 18.824 20.098C18.884 20.34 18.841 20.578 18.704 20.752Z" fill="black"/>
</svg>
