<svg width="25" height="23" viewBox="0 0 25 23" fill="none" xmlns="http://www.w3.org/2000/svg">
<path d="M23.6095 0.150052C23.2345 -0.0339485 22.7875 0.120052 22.6035 0.490052L19.7395 6.26605L18.0365 4.45605C17.7535 4.15305 17.2785 4.14005 16.9765 4.42405C16.6745 4.70805 16.6605 5.18405 16.9445 5.48405L19.3875 8.08005C19.5305 8.23005 19.7275 8.31505 19.9335 8.31505C19.9695 8.31505 20.0065 8.31205 20.0435 8.30705C20.2865 8.27105 20.4955 8.11705 20.6055 7.89705L23.9475 1.15705C24.1315 0.785051 23.9795 0.335052 23.6075 0.151052L23.6095 0.150052ZM19.0175 16.6251C18.9345 16.5611 16.9735 15.0001 17.0075 10.8651C17.0295 8.43205 16.2275 6.26905 14.7515 4.77505C13.4275 3.43505 11.6355 2.69205 9.70555 2.68305H9.69255C7.76255 2.69305 5.97055 3.43305 4.64655 4.77505C3.17155 6.27005 2.36955 8.43305 2.38955 10.8671C2.42555 15.0001 0.466548 16.5601 0.389548 16.6201C0.129548 16.8131 0.0225476 17.1501 0.123548 17.4581C0.225548 17.7661 0.513548 17.9731 0.835548 17.9731H4.91555C5.00355 20.5431 7.10855 22.6131 9.70055 22.6131C12.2925 22.6131 14.3985 20.5431 14.4855 17.9731H18.5675C18.8875 17.9731 19.1715 17.7671 19.2745 17.4631C19.3775 17.159 19.2725 16.8201 19.0185 16.6251H19.0175ZM9.69955 20.5131C8.26555 20.5131 7.09955 19.3861 7.01555 17.9731H12.3835C12.2985 19.3861 11.1335 20.5131 9.69955 20.5131Z" fill="white"/>
</svg>
